<?xml version="1.0" encoding="UTF-8"?>
<svg version="1.1" xmlns="http://www.w3.org/2000/svg" width="1024" height="1024">
<path d="M0 0 C0.58031982 0.45737549 1.16063965 0.91475098 1.75854492 1.38598633 C8.23285125 6.53688735 14.46523589 11.96278252 20.67041016 17.43261719 C22.10917607 18.69640384 23.55952816 19.946975 25.01171875 21.1953125 C29.13919013 24.76918415 32.85069326 28.45229573 36.375 32.62109375 C38.28788459 34.84636473 40.26414868 37.00306905 42.26196289 39.15209961 C66.41824865 65.17006179 86.42846182 96.40773013 99.37695312 129.49755859 C100.32663982 131.91093257 101.31001304 134.30864889 102.296875 136.70703125 C108.23318503 151.40619176 112.34814856 166.54572875 116.3125 181.875 C116.60817871 183.0079248 116.90385742 184.14084961 117.20849609 185.30810547 C117.48387207 186.3807666 117.75924805 187.45342773 118.04296875 188.55859375 C118.41071411 189.98836548 118.41071411 189.98836548 118.78588867 191.44702148 C119.3125 193.875 119.3125 193.875 119.3125 196.875 C107.43021592 200.38377752 95.44411427 203.4496051 83.4375 206.5 C81.49734994 206.99461169 79.55724548 207.48940228 77.6171875 207.984375 C67.62991708 210.53064433 67.62991708 210.53064433 64.58111572 211.29278564 C63.08452739 211.67686797 61.5930231 212.08141563 60.10784912 212.50750732 C56.15271408 213.6129296 53.27484735 214.11323355 49.3125 212.875 C49.14758057 212.22354004 48.98266113 211.57208008 48.81274414 210.90087891 C37.32699474 165.93822863 20.23711109 124.00105904 -10.6875 88.875 C-11.26628906 88.18535156 -11.84507812 87.49570313 -12.44140625 86.78515625 C-22.63145079 74.70522877 -34.10291774 64.48270874 -46.86328125 55.20410156 C-48.33804287 54.12960983 -49.79666191 53.03298379 -51.25 51.9296875 C-78.34148397 31.90134042 -111.08903761 19.3177539 -143.6875 11.875 C-144.53618652 11.67922363 -145.38487305 11.48344727 -146.25927734 11.28173828 C-220.37689014 -5.27722107 -304.28704673 7.04306325 -368.859375 47.2265625 C-382.47174 55.97736857 -395.58633127 66.07515632 -406.6875 77.875 C-407.47640625 78.66261719 -408.2653125 79.45023438 -409.078125 80.26171875 C-469.77971671 141.0541811 -484.63485706 231.25033415 -486.34643555 313.79443359 C-486.370681 314.86455688 -486.370681 314.86455688 -486.39541626 315.95629883 C-486.43882617 317.90746901 -486.47655079 319.85876329 -486.51391602 321.81005859 C-486.6875 324.875 -486.6875 324.875 -487.6875 327.875 C-487.0275 328.205 -486.3675 328.535 -485.6875 328.875 C-485.94007568 329.85424438 -485.94007568 329.85424438 -486.19775391 330.85327148 C-486.81742833 334.6766565 -486.68744442 338.37109601 -486.5234375 342.22265625 C-486.49148285 343.05024948 -486.4595282 343.87784271 -486.42660522 344.73051453 C-486.31532777 347.46672101 -486.1910253 350.20205114 -486.0625 352.9375 C-486.01871216 353.88250366 -485.97492432 354.82750732 -485.92980957 355.80114746 C-482.90750633 418.78383526 -471.70389631 480.72015137 -442.57080078 537.15722656 C-441.80425386 538.64794633 -441.05485455 540.14745968 -440.30859375 541.6484375 C-412.08825287 596.4043228 -360.79223484 634.56135079 -303.34838867 653.69555664 C-275.91444029 662.40391926 -248.0129714 665.301254 -219.375 665.25 C-217.73248764 665.24968277 -217.73248764 665.24968277 -216.05679321 665.24935913 C-190.97479198 665.20115483 -166.91252317 662.67465041 -142.6875 655.875 C-141.88989258 655.65134766 -141.09228516 655.42769531 -140.27050781 655.19726562 C-137.98698224 654.54536344 -135.71081277 653.87410709 -133.4375 653.1875 C-132.42550537 652.88404663 -132.42550537 652.88404663 -131.39306641 652.57446289 C-129.80357845 652.0697868 -128.2415501 651.48006049 -126.6875 650.875 C-126.3575 650.215 -126.0275 649.555 -125.6875 648.875 C-124.05351086 648.66540453 -122.41913121 648.45853005 -120.78320312 648.26464844 C-116.75612996 647.51590557 -113.13833892 645.70542729 -109.4375 644 C-108.56633545 643.60143799 -107.6951709 643.20287598 -106.79760742 642.79223633 C-86.92364137 633.50840096 -65.3013553 621.15996085 -50.0234375 605.12890625 C-48.6875 603.875 -48.6875 603.875 -46.6875 603.875 C-46.3575 602.885 -46.0275 601.895 -45.6875 600.875 C-43.25 598.1875 -43.25 598.1875 -40.6875 595.875 C-40.0275 595.875 -39.3675 595.875 -38.6875 595.875 C-38.42710937 595.29105469 -38.16671875 594.70710937 -37.8984375 594.10546875 C-36.6068294 591.72640996 -35.18623161 590.13633899 -33.3125 588.1875 C-23.52660436 577.36963718 -15.40078901 564.79478371 -8.6875 551.875 C-8.18524902 550.9173877 -8.18524902 550.9173877 -7.67285156 549.94042969 C-3.42049568 541.71920831 0.0027522 533.42501851 2.6875 524.5625 C2.9261377 523.77536621 3.16477539 522.98823242 3.41064453 522.17724609 C6.50662615 511.3894403 7.680406 500.83146483 7.625 489.625 C7.61762817 487.84947754 7.61762817 487.84947754 7.61010742 486.03808594 C7.48895162 476.95450714 6.69811796 468.65135877 4.3125 459.875 C3.83683594 458.07869141 3.83683594 458.07869141 3.3515625 456.24609375 C-5.73195165 425.87108011 -27.45113983 400.65970874 -54.6875 384.875 C-55.63981837 387.7319551 -55.98046348 390.06356705 -56.265625 393.046875 C-61.59824506 445.5794586 -79.56211445 499.35305091 -121.6875 533.875 C-155.6649694 561.19321073 -201.33626989 569.36622178 -243.90087891 565.10571289 C-287.62088828 560.08758987 -329.3832843 543.80579252 -357.6875 508.875 C-360.85034957 504.63646048 -363.80579365 500.30880187 -366.6875 495.875 C-367.30625 494.93011719 -367.925 493.98523438 -368.5625 493.01171875 C-385.18093958 466.19222809 -390.70914907 430.53917597 -383.72265625 399.80859375 C-377.85423306 376.72535219 -367.33241223 354.37907739 -349.6875 337.875 C-349.0275 337.875 -348.3675 337.875 -347.6875 337.875 C-347.6875 337.215 -347.6875 336.555 -347.6875 335.875 C-345.70715557 334.08994377 -343.72806754 332.44300243 -341.625 330.8125 C-340.9944873 330.32225342 -340.36397461 329.83200684 -339.71435547 329.3269043 C-333.03741783 324.23629617 -326.02327734 319.93992817 -318.6875 315.875 C-318.08808594 315.5337207 -317.48867188 315.19244141 -316.87109375 314.84082031 C-290.55565571 299.99220652 -259.38792262 294.83073619 -229.6875 291.875 C-228.7907959 291.77856201 -227.8940918 291.68212402 -226.97021484 291.58276367 C-215.24342788 290.48441657 -203.45399083 290.679063 -191.6875 290.6875 C-189.95504532 290.68691086 -189.95504532 290.68691086 -188.18759155 290.68630981 C-167.54072918 290.6947303 -147.20726987 291.50979288 -126.6875 293.875 C-121.59437211 283.68874422 -127.99033444 264.16768849 -131.34863281 253.84228516 C-133.97523509 246.19467441 -137.23053361 239.36955752 -142.171875 232.92578125 C-143.6875 230.875 -143.6875 230.875 -144.640625 228.73046875 C-145.97172348 226.37124569 -147.25708533 225.98056457 -149.6875 224.875 C-150.79581752 223.85995673 -151.87727582 222.8151785 -152.9375 221.75 C-172.2239621 204.57859601 -201.81046407 202.12669881 -226.4140625 202.96826172 C-258.07141254 204.88558961 -288.13299667 216.88954578 -310.65234375 239.5390625 C-312.6875 240.875 -312.6875 240.875 -314.984375 240.94921875 C-318.94335481 239.37592475 -321.78670831 236.81680611 -325 234.0625 C-326.43152455 232.86730894 -327.86517599 231.67466141 -329.30078125 230.484375 C-330.02990723 229.87916016 -330.7590332 229.27394531 -331.51025391 228.65039062 C-334.83195354 225.94177886 -338.24781484 223.36864317 -341.6875 220.8125 C-342.3386377 220.3273291 -342.98977539 219.8421582 -343.66064453 219.34228516 C-346.39147308 217.31180693 -349.12762986 215.28859323 -351.86474609 213.26660156 C-354.03725559 211.66014481 -356.20615165 210.04889436 -358.375 208.4375 C-359.03435547 207.95337646 -359.69371094 207.46925293 -360.37304688 206.97045898 C-364.13074464 204.17695849 -367.4628054 201.272336 -370.6875 197.875 C-369.841875 197.215 -368.99625 196.555 -368.125 195.875 C-365.66996187 193.83578039 -363.61020684 191.69517327 -361.5625 189.25 C-331.16753894 153.89933877 -284.53588762 134.38783797 -238.8190918 130.07788086 C-215.40256619 128.56083613 -191.68308117 129.03235901 -168.6875 133.875 C-167.80916504 134.05691895 -166.93083008 134.23883789 -166.02587891 134.42626953 C-135.23503921 141.05604625 -105.78890106 157.40372915 -85.6875 181.875 C-85.05199219 182.62265625 -84.41648437 183.3703125 -83.76171875 184.140625 C-59.62288291 213.20097106 -50.30187523 250.75882572 -49.0625 287.8125 C-49.0109375 289.11896484 -48.959375 290.42542969 -48.90625 291.77148438 C-48.66216527 298.90378362 -48.69782924 305.80041669 -49.6875 312.875 C-49.08744141 313.03427979 -48.48738281 313.19355957 -47.86914062 313.35766602 C-41.26989343 315.20971693 -35.29589195 317.72093038 -29.1875 320.8125 C-28.23407715 321.29340088 -27.2806543 321.77430176 -26.29833984 322.26977539 C-16.92254139 327.10448872 -8.24788093 332.72989043 0.3125 338.875 C1.03228027 339.38740234 1.75206055 339.89980469 2.49365234 340.42773438 C10.75614393 346.34303264 18.38832268 352.39192048 25.3125 359.875 C26.158125 360.720625 27.00375 361.56625 27.875 362.4375 C28.679375 363.241875 29.48375 364.04625 30.3125 364.875 C30.88226562 365.40996094 31.45203125 365.94492187 32.0390625 366.49609375 C52.52652514 386.12651114 70.26173228 417.00962236 76.3125 444.875 C76.3125 446.195 76.3125 447.515 76.3125 448.875 C76.9725 449.205 77.6325 449.535 78.3125 449.875 C78.79907227 451.83349609 78.79907227 451.83349609 79.12890625 454.3984375 C79.25330078 455.33816406 79.37769531 456.27789063 79.50585938 457.24609375 C79.68858398 458.73302734 79.68858398 458.73302734 79.875 460.25 C80.00068359 461.20261719 80.12636719 462.15523437 80.25585938 463.13671875 C80.6319733 466.047171 80.97939882 468.95932453 81.3125 471.875 C81.47020874 473.24603882 81.47020874 473.24603882 81.63110352 474.64477539 C84.3364222 500.71060262 79.73024676 527.23489715 71.3125 551.875 C70.74595703 553.55335938 70.74595703 553.55335938 70.16796875 555.265625 C59.32237148 585.1580839 41.7649908 610.81672325 21.3125 634.875 C20.76352051 635.52186768 20.21454102 636.16873535 19.64892578 636.83520508 C16.66234503 640.3392717 13.61169407 643.65435817 10.3125 646.875 C9.71566406 647.48214844 9.11882813 648.08929687 8.50390625 648.71484375 C-3.6672307 661.07578401 -17.46340412 671.96893322 -31.6875 681.875 C-32.22246094 682.24802246 -32.75742187 682.62104492 -33.30859375 683.00537109 C-77.67500972 713.75250461 -129.11723449 731.35312529 -182.6875 736.875 C-183.88922852 737.0153064 -183.88922852 737.0153064 -185.11523438 737.15844727 C-195.15273531 738.18683486 -205.24078108 738.06106372 -215.31933594 738.06030273 C-218.52032132 738.06247142 -221.72095111 738.08062669 -224.921875 738.09960938 C-243.31841573 738.15122974 -261.45610212 737.0264989 -279.5625 733.625 C-280.73393555 733.40884033 -281.90537109 733.19268066 -283.11230469 732.9699707 C-312.33454361 727.4330631 -339.75161256 718.46771868 -366.6875 705.875 C-367.47125 705.50874512 -368.255 705.14249023 -369.0625 704.76513672 C-397.15842153 691.48701438 -422.63680691 673.38919992 -445.234375 652.1171875 C-447.59147166 649.87628404 -447.59147166 649.87628404 -450.015625 648.1953125 C-450.56734375 647.75960937 -451.1190625 647.32390625 -451.6875 646.875 C-451.6875 646.215 -451.6875 645.555 -451.6875 644.875 C-452.3475 644.875 -453.0075 644.875 -453.6875 644.875 C-455.02734375 643.546875 -455.02734375 643.546875 -456.625 641.625 C-459.63664729 638.07088208 -462.75219425 634.64948225 -465.9375 631.25 C-481.40352455 614.50664753 -494.15867863 595.47711344 -505.6875 575.875 C-506.07502441 575.22241211 -506.46254883 574.56982422 -506.86181641 573.89746094 C-531.6875 531.90794322 -531.6875 531.90794322 -531.6875 518.875 C-532.3475 518.545 -533.0075 518.215 -533.6875 517.875 C-534.38745117 515.85888672 -534.38745117 515.85888672 -535.04296875 513.1796875 C-536.16054457 508.82849888 -537.38501039 504.54182463 -538.73828125 500.2578125 C-556.81487439 442.50108713 -556.81487439 442.50108713 -555.6875 416.875 C-556.3475 416.875 -557.0075 416.875 -557.6875 416.875 C-557.65785156 415.72644531 -557.62820313 414.57789063 -557.59765625 413.39453125 C-557.59922128 405.37685772 -558.56767083 397.38960507 -559.33032227 389.41577148 C-561.26679257 369.02341086 -561.8948008 348.7322744 -561.875 328.25 C-561.87439575 327.0885849 -561.8737915 325.9271698 -561.87316895 324.7305603 C-561.7907869 266.13331585 -555.42020455 207.56619723 -536.53198242 151.84423828 C-536.16177979 150.74192871 -535.79157715 149.63961914 -535.41015625 148.50390625 C-535.07765869 147.53525635 -534.74516113 146.56660645 -534.40258789 145.56860352 C-533.68798346 142.87682112 -533.54865968 140.64519489 -533.6875 137.875 C-533.0275 137.875 -532.3675 137.875 -531.6875 137.875 C-531.34138672 137.04645508 -531.34138672 137.04645508 -530.98828125 136.20117188 C-517.53944942 104.12065801 -501.14062612 73.75234973 -478.07177734 47.46972656 C-476.65632649 45.83908724 -475.27269804 44.18566856 -473.89453125 42.5234375 C-468.35247388 35.87221412 -462.55687978 29.56399948 -456.4375 23.4375 C-455.78821533 22.78740967 -455.13893066 22.13731934 -454.4699707 21.4675293 C-450.0323388 17.08060031 -445.43398753 12.92458731 -440.6875 8.875 C-440.08566895 8.36106689 -439.48383789 7.84713379 -438.86376953 7.31762695 C-392.59448608 -31.79980136 -335.24116003 -55.58201723 -275.6875 -65.125 C-274.74745117 -65.27662598 -273.80740234 -65.42825195 -272.83886719 -65.58447266 C-260.81951252 -67.46262857 -248.75697616 -68.51320015 -236.625 -69.3125 C-234.71714722 -69.43854614 -234.71714722 -69.43854614 -232.77075195 -69.56713867 C-151.55941071 -74.46640761 -64.16351465 -50.72685038 0 0 Z M-251.5 365.1875 C-252.38107422 365.40623779 -253.26214844 365.62497559 -254.16992188 365.8503418 C-266.60335655 369.03053708 -277.01030939 373.81498009 -287.6875 380.875 C-288.72197266 381.50535156 -288.72197266 381.50535156 -289.77734375 382.1484375 C-300.36504911 388.91880692 -307.85327761 402.28419015 -311.125 414.25 C-313.77188935 430.10192623 -311.52933161 447.30674214 -302.6875 460.875 C-289.48870967 478.31625864 -269.96807836 488.24917483 -248.6875 491.875 C-221.74276299 495.59237962 -191.93000293 495.2024767 -168.95849609 478.62744141 C-140.12280207 455.77082466 -132.41759414 417.04280582 -128.28125 382.48046875 C-127.72207236 376.92752411 -127.59603642 371.45427855 -127.6875 365.875 C-136.46043257 363.55305007 -145.35906061 362.92784702 -154.375 362.25 C-155.23144104 362.18463043 -156.08788208 362.11926086 -156.97027588 362.0519104 C-171.66694479 360.96054684 -186.32774662 360.57488227 -201.0625 360.5625 C-202.4924379 360.5573941 -202.4924379 360.5573941 -203.95126343 360.55218506 C-219.98999758 360.51926377 -235.87997311 361.23057337 -251.5 365.1875 Z " fill="#FEFEFE" transform="translate(725.6875,167.125)"/>
<path d="M0 0 C0.33 0 0.66 0 1 0 C1 1.65 1 3.3 1 5 C0.67 5 0.34 5 0 5 C0 3.35 0 1.7 0 0 Z " fill="#FDFEFE" transform="translate(338,600)"/>
<path d="M0 0 C0.99 0 1.98 0 3 0 C2.67 0.66 2.34 1.32 2 2 C1.34 2 0.68 2 0 2 C0 1.34 0 0.68 0 0 Z " fill="#FEFEFF" transform="translate(592,533)"/>
<path d="M0 0 C1 4 1 4 1 4 Z " fill="#FBFDFD" transform="translate(162,475)"/>
<path d="M0 0 C4 1 4 1 4 1 Z " fill="#F6F8F7" transform="translate(804,375)"/>
<path d="M0 0 C3 1 3 1 3 1 Z " fill="#F7F9FA" transform="translate(451,902)"/>
<path d="M0 0 C3 1 3 1 3 1 Z " fill="#FDFDFC" transform="translate(437,824)"/>
<path d="M0 0 C3 1 3 1 3 1 Z " fill="#FDFEFD" transform="translate(417,818)"/>
<path d="" fill="#FDFEFD" transform="translate(0,0)"/>
<path d="" fill="#FAFAFB" transform="translate(0,0)"/>
<path d="" fill="#FBFBFC" transform="translate(0,0)"/>
<path d="" fill="#FCFBFB" transform="translate(0,0)"/>
<path d="" fill="#FCFCFC" transform="translate(0,0)"/>
<path d="M0 0 C0.99 0.495 0.99 0.495 2 1 C1.01 1.495 1.01 1.495 0 2 C0 1.34 0 0.68 0 0 Z " fill="#FEFEFE" transform="translate(402,322)"/>
<path d="M0 0 C3 1 3 1 3 1 Z " fill="#F9F9F9" transform="translate(497,96)"/>
<path d="M0 0 C2 1 2 1 2 1 Z " fill="#F6F8F8" transform="translate(518,906)"/>
<path d="M0 0 C2 1 2 1 2 1 Z " fill="#F9F9F9" transform="translate(553,903)"/>
<path d="M0 0 C2 1 2 1 2 1 Z " fill="#F7F8F9" transform="translate(416,895)"/>
<path d="M0 0 C2 1 2 1 2 1 Z " fill="#F8F9F9" transform="translate(402,891)"/>
<path d="M0 0 C2 1 2 1 2 1 Z " fill="#F5F6F7" transform="translate(378,883)"/>
<path d="" fill="#F6F8F8" transform="translate(0,0)"/>
<path d="" fill="#F9F9F9" transform="translate(0,0)"/>
<path d="M0 0 C2 1 2 1 2 1 Z " fill="#FDFEFE" transform="translate(421,819)"/>
<path d="M0 0 C2 1 2 1 2 1 Z " fill="#FEFDFD" transform="translate(414,817)"/>
<path d="" fill="#FBFBFC" transform="translate(0,0)"/>
<path d="" fill="#F6F7F7" transform="translate(0,0)"/>
<path d="" fill="#FEFFFD" transform="translate(0,0)"/>
<path d="" fill="#FAFBFB" transform="translate(0,0)"/>
<path d="" fill="#F9FBFB" transform="translate(0,0)"/>
<path d="" fill="#FEFFFE" transform="translate(0,0)"/>
<path d="M0 0 C2 1 2 1 2 1 Z " fill="#FEFFFE" transform="translate(643,654)"/>
<path d="" fill="#F7F9F8" transform="translate(0,0)"/>
<path d="" fill="#FFFFFF" transform="translate(0,0)"/>
<path d="M0 0 C2 1 2 1 2 1 Z " fill="#FFFFFE" transform="translate(714,595)"/>
<path d="" fill="#FFFEFE" transform="translate(0,0)"/>
<path d="M0 0 C2 1 2 1 2 1 Z " fill="#FEFEFE" transform="translate(452,541)"/>
<path d="M0 0 C2 1 2 1 2 1 Z " fill="#FDFEFD" transform="translate(469,535)"/>
<path d="" fill="#FBFCFC" transform="translate(0,0)"/>
<path d="M0 0 C2 1 2 1 2 1 Z " fill="#FEFEFE" transform="translate(688,483)"/>
<path d="" fill="#FFFFFF" transform="translate(0,0)"/>
<path d="" fill="#FBFCFA" transform="translate(0,0)"/>
<path d="" fill="#FDFDFD" transform="translate(0,0)"/>
<path d="" fill="#FEFEFE" transform="translate(0,0)"/>
<path d="M0 0 C2 1 2 1 2 1 Z " fill="#EFF0EF" transform="translate(836,367)"/>
<path d="" fill="#FEFFFF" transform="translate(0,0)"/>
<path d="" fill="#FAFBFB" transform="translate(0,0)"/>
<path d="" fill="#F5F6F6" transform="translate(0,0)"/>
<path d="M0 0 C2 1 2 1 2 1 Z " fill="#FEFEFE" transform="translate(467,298)"/>
<path d="" fill="#FEFFFF" transform="translate(0,0)"/>
<path d="" fill="#FFFFFF" transform="translate(0,0)"/>
<path d="M0 0 C2 1 2 1 2 1 Z " fill="#FDFFFF" transform="translate(578,179)"/>
<path d="M0 0 C2 1 2 1 2 1 Z " fill="#FFFFFF" transform="translate(544,174)"/>
<path d="M0 0 C2 1 2 1 2 1 Z " fill="#F9FAFA" transform="translate(489,96)"/>
<path d="" fill="#F8F8F8" transform="translate(0,0)"/>
<path d="" fill="#F7F8F9" transform="translate(0,0)"/>
<path d="" fill="#F9FAF8" transform="translate(0,0)"/>
<path d="" fill="#F8FBFA" transform="translate(0,0)"/>
<path d="" fill="#F8F9F9" transform="translate(0,0)"/>
<path d="" fill="#F9FCFB" transform="translate(0,0)"/>
<path d="" fill="#F6F8F7" transform="translate(0,0)"/>
<path d="" fill="#F8F9FA" transform="translate(0,0)"/>
<path d="" fill="#F7F9FB" transform="translate(0,0)"/>
<path d="" fill="#F6F7F8" transform="translate(0,0)"/>
<path d="" fill="#F6F8F8" transform="translate(0,0)"/>
<path d="" fill="#F7F8F9" transform="translate(0,0)"/>
<path d="" fill="#F7F8F9" transform="translate(0,0)"/>
<path d="" fill="#F6F7F7" transform="translate(0,0)"/>
<path d="" fill="#F9F8F8" transform="translate(0,0)"/>
<path d="" fill="#F6F7F7" transform="translate(0,0)"/>
<path d="" fill="#F7F8FA" transform="translate(0,0)"/>
<path d="" fill="#F8F8F8" transform="translate(0,0)"/>
<path d="" fill="#F6F7F6" transform="translate(0,0)"/>
<path d="" fill="#F6F8F9" transform="translate(0,0)"/>
<path d="" fill="#F3F6F5" transform="translate(0,0)"/>
<path d="" fill="#F5F7F6" transform="translate(0,0)"/>
<path d="" fill="#F5F7F8" transform="translate(0,0)"/>
<path d="" fill="#F7F8F7" transform="translate(0,0)"/>
<path d="" fill="#F1F3F2" transform="translate(0,0)"/>
<path d="" fill="#F6F7F7" transform="translate(0,0)"/>
<path d="" fill="#F5F6F5" transform="translate(0,0)"/>
<path d="" fill="#F5F6F6" transform="translate(0,0)"/>
<path d="" fill="#F7F8FA" transform="translate(0,0)"/>
<path d="" fill="#F7FAF9" transform="translate(0,0)"/>
<path d="" fill="#F8F8F8" transform="translate(0,0)"/>
<path d="" fill="#F7F8FA" transform="translate(0,0)"/>
<path d="" fill="#F5F7F6" transform="translate(0,0)"/>
<path d="" fill="#FFFFFF" transform="translate(0,0)"/>
<path d="" fill="#FDFEFD" transform="translate(0,0)"/>
<path d="" fill="#FDFFFF" transform="translate(0,0)"/>
<path d="" fill="#FDFDFD" transform="translate(0,0)"/>
<path d="" fill="#F4F5F4" transform="translate(0,0)"/>
<path d="" fill="#FEFFFE" transform="translate(0,0)"/>
<path d="" fill="#FFFFFF" transform="translate(0,0)"/>
<path d="" fill="#FCFEFF" transform="translate(0,0)"/>
<path d="" fill="#F8FAF9" transform="translate(0,0)"/>
<path d="" fill="#FEFEFE" transform="translate(0,0)"/>
<path d="" fill="#FEFFFE" transform="translate(0,0)"/>
<path d="" fill="#FFFFFF" transform="translate(0,0)"/>
<path d="" fill="#F9FAFA" transform="translate(0,0)"/>
<path d="" fill="#FDFEFE" transform="translate(0,0)"/>
<path d="" fill="#F7F8F7" transform="translate(0,0)"/>
<path d="" fill="#FAFAFB" transform="translate(0,0)"/>
<path d="" fill="#FBF9FB" transform="translate(0,0)"/>
<path d="" fill="#F9F8F8" transform="translate(0,0)"/>
<path d="" fill="#FAFAFB" transform="translate(0,0)"/>
<path d="" fill="#F9FAFB" transform="translate(0,0)"/>
<path d="" fill="#FFFFFE" transform="translate(0,0)"/>
<path d="" fill="#F9FBFB" transform="translate(0,0)"/>
<path d="" fill="#FEFEFE" transform="translate(0,0)"/>
<path d="" fill="#F8F8F9" transform="translate(0,0)"/>
<path d="" fill="#F9FBFB" transform="translate(0,0)"/>
<path d="" fill="#F5F6F7" transform="translate(0,0)"/>
<path d="" fill="#FFFBFD" transform="translate(0,0)"/>
<path d="" fill="#FEFEFD" transform="translate(0,0)"/>
<path d="" fill="#FFFFFF" transform="translate(0,0)"/>
<path d="" fill="#FEFFFF" transform="translate(0,0)"/>
<path d="" fill="#FDFFFE" transform="translate(0,0)"/>
<path d="" fill="#FAF9FC" transform="translate(0,0)"/>
<path d="" fill="#FBFDFD" transform="translate(0,0)"/>
<path d="" fill="#F9FAFC" transform="translate(0,0)"/>
<path d="" fill="#FDFFFF" transform="translate(0,0)"/>
<path d="" fill="#FEFFFF" transform="translate(0,0)"/>
<path d="" fill="#FAFBFD" transform="translate(0,0)"/>
<path d="" fill="#F6F7F8" transform="translate(0,0)"/>
<path d="" fill="#FFFFFE" transform="translate(0,0)"/>
<path d="" fill="#FBFAFD" transform="translate(0,0)"/>
<path d="" fill="#FEFFFD" transform="translate(0,0)"/>
<path d="" fill="#FBFEFB" transform="translate(0,0)"/>
<path d="" fill="#F8FBFC" transform="translate(0,0)"/>
<path d="" fill="#FFFFFF" transform="translate(0,0)"/>
<path d="" fill="#FEFFFF" transform="translate(0,0)"/>
<path d="" fill="#FDFFFF" transform="translate(0,0)"/>
<path d="" fill="#F9F9F9" transform="translate(0,0)"/>
<path d="" fill="#F6F8F8" transform="translate(0,0)"/>
<path d="" fill="#F7F8F7" transform="translate(0,0)"/>
<path d="" fill="#FFFFFE" transform="translate(0,0)"/>
<path d="" fill="#FEFEFC" transform="translate(0,0)"/>
<path d="" fill="#F9FCFB" transform="translate(0,0)"/>
<path d="" fill="#FFFFFF" transform="translate(0,0)"/>
<path d="" fill="#FDFFFF" transform="translate(0,0)"/>
<path d="" fill="#FDFDFF" transform="translate(0,0)"/>
<path d="" fill="#FEFFFF" transform="translate(0,0)"/>
<path d="" fill="#FEFFFF" transform="translate(0,0)"/>
<path d="" fill="#FEFEFF" transform="translate(0,0)"/>
<path d="" fill="#FEFFFF" transform="translate(0,0)"/>
<path d="" fill="#FDFFFE" transform="translate(0,0)"/>
<path d="" fill="#FEFFFE" transform="translate(0,0)"/>
<path d="" fill="#FFFFFF" transform="translate(0,0)"/>
<path d="" fill="#F8FAFA" transform="translate(0,0)"/>
<path d="" fill="#F9FBFB" transform="translate(0,0)"/>
<path d="" fill="#FCFEFE" transform="translate(0,0)"/>
<path d="" fill="#F9FCFD" transform="translate(0,0)"/>
<path d="" fill="#F9FBFD" transform="translate(0,0)"/>
<path d="" fill="#F9FBFB" transform="translate(0,0)"/>
<path d="" fill="#FCFEFE" transform="translate(0,0)"/>
<path d="" fill="#FEFEFE" transform="translate(0,0)"/>
<path d="" fill="#FDFEFE" transform="translate(0,0)"/>
<path d="" fill="#FCFFFE" transform="translate(0,0)"/>
<path d="" fill="#F8FAFB" transform="translate(0,0)"/>
<path d="" fill="#FEFFFF" transform="translate(0,0)"/>
<path d="" fill="#F9F9F9" transform="translate(0,0)"/>
<path d="" fill="#FEFFFF" transform="translate(0,0)"/>
<path d="" fill="#FBFAFC" transform="translate(0,0)"/>
<path d="" fill="#F7F9F8" transform="translate(0,0)"/>
<path d="" fill="#FFFEFF" transform="translate(0,0)"/>
<path d="" fill="#F6F7F7" transform="translate(0,0)"/>
<path d="" fill="#F9F9FB" transform="translate(0,0)"/>
<path d="" fill="#FAFBFB" transform="translate(0,0)"/>
<path d="" fill="#FAFDFC" transform="translate(0,0)"/>
<path d="" fill="#FFFEFE" transform="translate(0,0)"/>
<path d="" fill="#F7F9F8" transform="translate(0,0)"/>
<path d="" fill="#FFFFFE" transform="translate(0,0)"/>
<path d="" fill="#FCFBFB" transform="translate(0,0)"/>
<path d="" fill="#FEFCFD" transform="translate(0,0)"/>
<path d="" fill="#FFFFFF" transform="translate(0,0)"/>
<path d="" fill="#FDFFFE" transform="translate(0,0)"/>
<path d="" fill="#FEFEFE" transform="translate(0,0)"/>
<path d="" fill="#FDFFFF" transform="translate(0,0)"/>
<path d="" fill="#FDFEFF" transform="translate(0,0)"/>
<path d="" fill="#FAFBFD" transform="translate(0,0)"/>
<path d="" fill="#FFFFFF" transform="translate(0,0)"/>
<path d="" fill="#F8F9F9" transform="translate(0,0)"/>
<path d="" fill="#FFFFFF" transform="translate(0,0)"/>
<path d="" fill="#FFFFFF" transform="translate(0,0)"/>
<path d="" fill="#FCFCFE" transform="translate(0,0)"/>
<path d="" fill="#FFFFFF" transform="translate(0,0)"/>
<path d="" fill="#FDFFFE" transform="translate(0,0)"/>
<path d="" fill="#FAFCFE" transform="translate(0,0)"/>
<path d="" fill="#FFFFFF" transform="translate(0,0)"/>
<path d="" fill="#FFFFFF" transform="translate(0,0)"/>
<path d="" fill="#FFFEFF" transform="translate(0,0)"/>
<path d="" fill="#FFFFFF" transform="translate(0,0)"/>
<path d="" fill="#FEFDFF" transform="translate(0,0)"/>
<path d="" fill="#FBFDFD" transform="translate(0,0)"/>
<path d="" fill="#FBFBFD" transform="translate(0,0)"/>
<path d="" fill="#FBFDFD" transform="translate(0,0)"/>
<path d="" fill="#FBFEFC" transform="translate(0,0)"/>
<path d="" fill="#FDFEFE" transform="translate(0,0)"/>
<path d="" fill="#FDFCFD" transform="translate(0,0)"/>
<path d="" fill="#FEFFFE" transform="translate(0,0)"/>
<path d="" fill="#FDFCFD" transform="translate(0,0)"/>
<path d="" fill="#FFFFFF" transform="translate(0,0)"/>
<path d="" fill="#FFFFFF" transform="translate(0,0)"/>
<path d="" fill="#FEFEFE" transform="translate(0,0)"/>
<path d="" fill="#FDFFFE" transform="translate(0,0)"/>
<path d="" fill="#FCFFFF" transform="translate(0,0)"/>
<path d="" fill="#FFFFFF" transform="translate(0,0)"/>
<path d="" fill="#FEFEFC" transform="translate(0,0)"/>
<path d="" fill="#FBFEFC" transform="translate(0,0)"/>
<path d="" fill="#F9FCFC" transform="translate(0,0)"/>
<path d="" fill="#FFFFFF" transform="translate(0,0)"/>
<path d="" fill="#FBFBFB" transform="translate(0,0)"/>
<path d="" fill="#FEFFFE" transform="translate(0,0)"/>
<path d="" fill="#FEFFFF" transform="translate(0,0)"/>
<path d="" fill="#FAFEFA" transform="translate(0,0)"/>
<path d="" fill="#FFFFFF" transform="translate(0,0)"/>
<path d="" fill="#FFFEFF" transform="translate(0,0)"/>
<path d="" fill="#FEFEFE" transform="translate(0,0)"/>
<path d="" fill="#FFFFFF" transform="translate(0,0)"/>
<path d="" fill="#FDFFFE" transform="translate(0,0)"/>
<path d="" fill="#FFFDFE" transform="translate(0,0)"/>
<path d="" fill="#FFFFFF" transform="translate(0,0)"/>
<path d="" fill="#FEFBFD" transform="translate(0,0)"/>
<path d="" fill="#FFFFFF" transform="translate(0,0)"/>
<path d="" fill="#FFFFFD" transform="translate(0,0)"/>
<path d="" fill="#FEFDFE" transform="translate(0,0)"/>
<path d="" fill="#FEFFFF" transform="translate(0,0)"/>
<path d="" fill="#FFFFFF" transform="translate(0,0)"/>
<path d="" fill="#FBFBFB" transform="translate(0,0)"/>
<path d="" fill="#FFFFFF" transform="translate(0,0)"/>
<path d="" fill="#FFFFFF" transform="translate(0,0)"/>
<path d="" fill="#FFFFFF" transform="translate(0,0)"/>
<path d="" fill="#FFFFFF" transform="translate(0,0)"/>
<path d="" fill="#F9F8F8" transform="translate(0,0)"/>
<path d="" fill="#FFFFFF" transform="translate(0,0)"/>
<path d="" fill="#FFFFFE" transform="translate(0,0)"/>
<path d="" fill="#FFFFFF" transform="translate(0,0)"/>
<path d="" fill="#FEFEFE" transform="translate(0,0)"/>
<path d="" fill="#FDFDFE" transform="translate(0,0)"/>
<path d="" fill="#E5E6E6" transform="translate(0,0)"/>
<path d="" fill="#E3E3E4" transform="translate(0,0)"/>
<path d="" fill="#EBECEA" transform="translate(0,0)"/>
<path d="" fill="#EBEDED" transform="translate(0,0)"/>
<path d="" fill="#EBEEEE" transform="translate(0,0)"/>
<path d="" fill="#EEF0EF" transform="translate(0,0)"/>
<path d="" fill="#FFFFFF" transform="translate(0,0)"/>
<path d="" fill="#FBFBFA" transform="translate(0,0)"/>
<path d="" fill="#FCFBFC" transform="translate(0,0)"/>
<path d="" fill="#F4F7F6" transform="translate(0,0)"/>
<path d="" fill="#FEFFFE" transform="translate(0,0)"/>
<path d="" fill="#FEFEFF" transform="translate(0,0)"/>
<path d="" fill="#F7F6F7" transform="translate(0,0)"/>
<path d="" fill="#FFFFFF" transform="translate(0,0)"/>
<path d="" fill="#FEFEFF" transform="translate(0,0)"/>
<path d="" fill="#FAFAFA" transform="translate(0,0)"/>
<path d="" fill="#FFFFFF" transform="translate(0,0)"/>
<path d="" fill="#FDFFFE" transform="translate(0,0)"/>
<path d="" fill="#FEFFFF" transform="translate(0,0)"/>
<path d="" fill="#F6F8F8" transform="translate(0,0)"/>
<path d="" fill="#FDFFFF" transform="translate(0,0)"/>
<path d="" fill="#FEFFFF" transform="translate(0,0)"/>
<path d="" fill="#F6F7F7" transform="translate(0,0)"/>
<path d="" fill="#FAFBFA" transform="translate(0,0)"/>
<path d="" fill="#FEFFFE" transform="translate(0,0)"/>
<path d="" fill="#F8F9F7" transform="translate(0,0)"/>
<path d="" fill="#F5F6F8" transform="translate(0,0)"/>
<path d="" fill="#FDFEFF" transform="translate(0,0)"/>
<path d="" fill="#FEFCFD" transform="translate(0,0)"/>
<path d="" fill="#FEFEFE" transform="translate(0,0)"/>
<path d="" fill="#FAFAFA" transform="translate(0,0)"/>
<path d="" fill="#F7F8F5" transform="translate(0,0)"/>
<path d="" fill="#F9FAFA" transform="translate(0,0)"/>
<path d="" fill="#F4F4F4" transform="translate(0,0)"/>
<path d="" fill="#F9FAFA" transform="translate(0,0)"/>
<path d="" fill="#F8F9F9" transform="translate(0,0)"/>
<path d="" fill="#F7F8F8" transform="translate(0,0)"/>
<path d="" fill="#F6F8F7" transform="translate(0,0)"/>
<path d="" fill="#FFFFFF" transform="translate(0,0)"/>
<path d="" fill="#F9FAFA" transform="translate(0,0)"/>
<path d="" fill="#F6F7F6" transform="translate(0,0)"/>
<path d="" fill="#FBFFFD" transform="translate(0,0)"/>
<path d="" fill="#FEFFFF" transform="translate(0,0)"/>
<path d="" fill="#FEFFFE" transform="translate(0,0)"/>
<path d="" fill="#F8F9F9" transform="translate(0,0)"/>
<path d="" fill="#FDFDFD" transform="translate(0,0)"/>
<path d="" fill="#FFFFFF" transform="translate(0,0)"/>
<path d="" fill="#F2F5F4" transform="translate(0,0)"/>
<path d="" fill="#FEFFFF" transform="translate(0,0)"/>
<path d="" fill="#FEFFFF" transform="translate(0,0)"/>
<path d="" fill="#FEFFFF" transform="translate(0,0)"/>
<path d="" fill="#FEFFFF" transform="translate(0,0)"/>
<path d="" fill="#FEFDFF" transform="translate(0,0)"/>
<path d="" fill="#F8F9FB" transform="translate(0,0)"/>
<path d="" fill="#FFFFFF" transform="translate(0,0)"/>
<path d="" fill="#FEFFFF" transform="translate(0,0)"/>
<path d="" fill="#FEFEFF" transform="translate(0,0)"/>
<path d="" fill="#F7F8F8" transform="translate(0,0)"/>
<path d="" fill="#FFFEFE" transform="translate(0,0)"/>
<path d="" fill="#FDFDFF" transform="translate(0,0)"/>
<path d="" fill="#FEFEFE" transform="translate(0,0)"/>
<path d="" fill="#FDFDFF" transform="translate(0,0)"/>
<path d="" fill="#F8FAF9" transform="translate(0,0)"/>
<path d="" fill="#F7F9FA" transform="translate(0,0)"/>
<path d="" fill="#F8F9F9" transform="translate(0,0)"/>
<path d="" fill="#F5F6F8" transform="translate(0,0)"/>
<path d="" fill="#F5F8F6" transform="translate(0,0)"/>
<path d="" fill="#F8F9F9" transform="translate(0,0)"/>
<path d="" fill="#F4F7F7" transform="translate(0,0)"/>
<path d="" fill="#F7FAF8" transform="translate(0,0)"/>
<path d="" fill="#F5F7F7" transform="translate(0,0)"/>
<path d="" fill="#F3F5F6" transform="translate(0,0)"/>
<path d="" fill="#F7F8F7" transform="translate(0,0)"/>
<path d="" fill="#F6F9F7" transform="translate(0,0)"/>
<path d="" fill="#F6F7F8" transform="translate(0,0)"/>
<path d="" fill="#F8F9FA" transform="translate(0,0)"/>
<path d="" fill="#F7F7F8" transform="translate(0,0)"/>
<path d="" fill="#F8F9F8" transform="translate(0,0)"/>
<path d="" fill="#F7F8F6" transform="translate(0,0)"/>
<path d="" fill="#FBFAFA" transform="translate(0,0)"/>
<path d="" fill="#FAFBFA" transform="translate(0,0)"/>
<path d="" fill="#FBFCFB" transform="translate(0,0)"/>
<path d="" fill="#FCFCFB" transform="translate(0,0)"/>
<path d="" fill="#FBF9F9" transform="translate(0,0)"/>
</svg>
